Coordinates
version=1
nRows=29
nColumns=22
inDegrees=yes

Units are S.I. units (second, meters, Newtons, ...)
If the header above contains a line with 'inDegrees', this indicates whether rotational values are in degrees (yes) or radians (no).

endheader
time	pelvis_tilt	pelvis_list	pelvis_rotation	pelvis_tx	pelvis_ty	pelvis_tz	hip_flexion_r	hip_adduction_r	hip_rotation_r	knee_angle_r	ankle_angle_r	subtalar_angle_r	hip_flexion_l	hip_adduction_l	hip_rotation_l	knee_angle_l	ankle_angle_l	subtalar_angle_l	lumbar_extension	lumbar_bending	lumbar_rotation
      0.01000000	    -11.49058134	      1.63565189	    -20.97426765	     -1.41959542	      0.97832917	     -0.43637943	     20.05808164	      4.15708291	     -3.24383808	    -18.68276104	     16.77333652	     -5.91055038	     19.55624252	     -1.80420565	     -3.85661809	    -19.32673199	     18.91840312	     -2.04790320	      2.93580481	      3.28818900	      5.09827409
      0.02000000	    -11.49240336	      1.63337357	    -20.97272554	     -1.41961707	      0.97832442	     -0.43641314	     20.06082756	      4.15820619	     -3.24317874	    -18.68121763	     16.77120414	     -5.91043164	     19.56057808	     -1.80601787	     -3.85663301	    -19.32720781	     18.91937863	     -2.04720581	      2.92785740	      3.28967229	      5.09743570
      0.03000000	    -11.49224088	      1.61776048	    -20.96547938	     -1.41965438	      0.97831793	     -0.43646426	     20.06235177	      4.17094947	     -3.23785948	    -18.69039431	     16.75617913	     -5.91005694	     19.57592479	     -1.81857650	     -3.84622622	    -19.35991585	     18.92562591	     -2.04203365	      2.90825293	      3.30382193	      5.08325780
      0.04000000	    -11.49535825	      1.61621287	    -20.96581303	     -1.41965538	      0.97831179	     -0.43650530	     20.06475242	      4.17159791	     -3.23951626	    -18.68676112	     16.75602881	     -5.91015906	     19.57948854	     -1.81869051	     -3.84623799	    -19.35847034	     18.92699284	     -2.04149771	      2.90267596	      3.30501251	      5.08186168
      0.05000000	    -11.50504195	      1.60096237	    -20.94826599	     -1.41966019	      0.97829234	     -0.43658152	     20.06815702	      4.18238736	     -3.25032744	    -18.68333033	     16.74776238	     -5.91171462	     19.60306558	     -1.83031002	     -3.83274747	    -19.38686595	     18.94549409	     -2.03490776	      2.89769731	      3.32369893	      5.04982688
      0.06000000	    -11.50881310	      1.59990563	    -20.94896555	     -1.41965009	      0.97828695	     -0.43663268	     20.07116238	      4.18152173	     -3.25221498	    -18.68039073	     16.74795871	     -5.91187307	     19.60580058	     -1.82985313	     -3.83244099	    -19.38437427	     18.94586301	     -2.03455922	      2.89341577	      3.32412690	      5.04927109
      0.07000000	    -11.53152498	      1.60179344	    -20.92941421	     -1.41963008	      0.97824692	     -0.43672092	     20.09493460	      4.17650881	     -3.28085825	    -18.67999403	     16.74461222	     -5.91428369	     19.63511234	     -1.82654499	     -3.81609840	    -19.38851416	     18.94877192	     -2.03019707	      2.91489247	      3.32937380	      5.00985527
      0.08000000	    -11.53498924	      1.60059860	    -20.92695797	     -1.41960928	      0.97824024	     -0.43679846	     20.09798994	      4.17355279	     -3.28029080	    -18.67935809	     16.74492181	     -5.91441506	     19.63884052	     -1.82362788	     -3.81602025	    -19.38784270	     18.94839925	     -2.03017074	      2.91076221	      3.33259350	      5.01089322
      0.09000000	    -11.53709291	      1.59854243	    -20.92752476	     -1.41957607	      0.97823286	     -0.43685483	     20.09828616	      4.17250754	     -3.28018740	    -18.67937832	     16.74495018	     -5.91443028	     19.63887795	     -1.82293728	     -3.81611650	    -19.38801330	     18.94830734	     -2.03018089	      2.91015915	      3.33194273	      5.01059476
      0.10000000	    -11.54171052	      1.59875229	    -20.92769512	     -1.41955809	      0.97822340	     -0.43695007	     20.10378586	      4.16733889	     -3.28023505	    -18.67826645	     16.74526866	     -5.91436940	     19.64413909	     -1.81881869	     -3.81745707	    -19.38691792	     18.94744219	     -2.03045579	      2.90500258	      3.33810230	      5.00688197
      0.11000000	    -11.61265272	      1.62481424	    -20.89952837	     -1.41957687	      0.97807805	     -0.43708712	     20.20373312	      4.15092896	     -3.32016357	    -18.71018583	     16.75499574	     -5.90250876	     19.75463730	     -1.80710764	     -3.79917634	    -19.43108123	     18.92762375	     -2.04464317	      2.99009037	      3.33804527	      4.95633511
      0.12000000	    -11.61684821	      1.62351374	    -20.90404299	     -1.41955581	      0.97807027	     -0.43716070	     20.20804334	      4.14955187	     -3.31855056	    -18.71017219	     16.75485247	     -5.90218192	     19.75668257	     -1.80590805	     -3.79910550	    -19.42820949	     18.92914898	     -2.04478153	      2.98629540	      3.34184565	      4.95491507
      0.13000000	    -11.62187575	      1.62198726	    -20.90927668	     -1.41953435	      0.97806035	     -0.43723231	     20.21390547	      4.14890718	     -3.31616489	    -18.71230527	     16.75436200	     -5.90138060	     19.76002939	     -1.80549485	     -3.79999525	    -19.42689723	     18.93162736	     -2.04525009	      2.98366043	      3.34684161	      4.95208760
      0.14000000	    -11.67001292	      1.61811856	    -20.91607856	     -1.41956431	      0.97796950	     -0.43728039	     20.27146042	      4.17107859	     -3.30373334	    -18.72930690	     16.74694356	     -5.88167005	     19.82608905	     -1.83030847	     -3.81578438	    -19.46084506	     18.96487650	     -2.05641970	      3.02675472	      3.36632234	      4.95558941
      0.15000000	    -11.67382592	      1.61740819	    -20.91861817	     -1.41954186	      0.97796385	     -0.43735261	     20.27422031	      4.16822348	     -3.30389618	    -18.72767921	     16.74705347	     -5.88139335	     19.82894580	     -1.82804615	     -3.81555919	    -19.45935942	     18.96410854	     -2.05640562	      3.02234914	      3.36957004	      4.95461501
      0.16000000	    -11.67837585	      1.61608011	    -20.91994166	     -1.41952765	      0.97795778	     -0.43741933	     20.27788385	      4.16716932	     -3.30428615	    -18.72602487	     16.74694405	     -5.88094164	     19.83286143	     -1.82674138	     -3.81510340	    -19.45812689	     18.96345230	     -2.05658709	      3.01701584	      3.37140698	      4.95411541
      0.17000000	    -11.68328890	      1.61464891	    -20.92050234	     -1.41951752	      0.97795143	     -0.43748734	     20.28165932	      4.16618716	     -3.30479457	    -18.72395402	     16.74660163	     -5.88042870	     19.83754868	     -1.82575013	     -3.81442074	    -19.45685323	     18.96284895	     -2.05691345	      3.01129681	      3.37377363	      4.95443630
      0.18000000	    -11.68879439	      1.61315684	    -20.92025320	     -1.41950972	      0.97794680	     -0.43755867	     20.28601338	      4.16536926	     -3.30555994	    -18.72115831	     16.74585616	     -5.87976841	     19.84283263	     -1.82456724	     -3.81331771	    -19.45543155	     18.96208085	     -2.05739026	      3.00569022	      3.37707040	      4.95557862
      0.19000000	    -11.69479273	      1.61167111	    -20.91935236	     -1.41950171	      0.97794265	     -0.43763210	     20.29061577	      4.16441318	     -3.30663039	    -18.71779334	     16.74458453	     -5.87895936	     19.84834832	     -1.82330418	     -3.81174532	    -19.45357690	     18.96114810	     -2.05793452	      3.00109645	      3.38104140	      4.95735995
      0.20000000	    -11.76440911	      1.60821391	    -20.89691117	     -1.41952245	      0.97784247	     -0.43774062	     20.36095006	      4.18247003	     -3.32731778	    -18.71575632	     16.70657043	     -5.85392148	     19.93370008	     -1.83939422	     -3.76514071	    -19.47517526	     18.95099207	     -2.07644814	      3.07016399	      3.41335143	      4.93403567
      0.21000000	    -11.76833353	      1.60789378	    -20.89643585	     -1.41951086	      0.97784199	     -0.43781158	     20.36426766	      4.17965747	     -3.32860462	    -18.71246509	     16.70799756	     -5.85387248	     19.93699003	     -1.83666336	     -3.76633859	    -19.47288879	     18.95184376	     -2.07656818	      3.06505167	      3.41469871	      4.93639846
      0.22000000	    -11.77217964	      1.60742998	    -20.89536590	     -1.41949359	      0.97784006	     -0.43788345	     20.36765434	      4.17656115	     -3.32989897	    -18.71018060	     16.70875665	     -5.85371042	     19.94004901	     -1.83382016	     -3.76733639	    -19.47065273	     18.95253236	     -2.07661691	      3.06155779	      3.41627097	      4.93865845
      0.23000000	    -11.77613677	      1.60694828	    -20.89415700	     -1.41947588	      0.97783741	     -0.43795549	     20.37200829	      4.17332834	     -3.33147095	    -18.70886731	     16.70894604	     -5.85341223	     19.94333811	     -1.83115117	     -3.76811743	    -19.46872383	     18.95315887	     -2.07666193	      3.05854988	      3.41749880	      4.94038540
      0.24000000	    -11.78039413	      1.60651777	    -20.89270097	     -1.41945749	      0.97783219	     -0.43802946	     20.37768427	      4.16990175	     -3.33363703	    -18.70971843	     16.70850389	     -5.85287883	     19.94780614	     -1.82830990	     -3.76877028	    -19.46747443	     18.95382288	     -2.07678740	      3.05591419	      3.41843857	      4.94119300
      0.25000000	    -11.78226814	      1.60426170	    -20.89317143	     -1.41942303	      0.97783232	     -0.43808481	     20.37858803	      4.16877737	     -3.33373653	    -18.70996720	     16.70841739	     -5.85282001	     19.94779166	     -1.82772704	     -3.76889788	    -19.46775424	     18.95386808	     -2.07680725	      3.05549160	      3.41749606	      4.94102040
      0.26000000	    -11.83768792	      1.63385647	    -20.87129590	     -1.41945813	      0.97771189	     -0.43822054	     20.47702389	      4.14136639	     -3.39168725	    -18.76154563	     16.71187768	     -5.83366027	     20.03967162	     -1.80818863	     -3.75769160	    -19.50215152	     18.95699937	     -2.08245697	      3.11810751	      3.40481012	      4.91830310
      0.27000000	    -11.83975052	      1.63127703	    -20.87170589	     -1.41941921	      0.97771363	     -0.43827978	     20.47751001	      4.14038380	     -3.39096229	    -18.76180883	     16.71192237	     -5.83363226	     20.03955235	     -1.80767407	     -3.75779974	    -19.50204272	     18.95690854	     -2.08244925	      3.11750262	      3.40424706	      4.91788998
      0.28000000	    -11.84437300	      1.62904222	    -20.86847338	     -1.41939824	      0.97771229	     -0.43837448	     20.48426498	      4.13807565	     -3.38537981	    -18.76607604	     16.71205881	     -5.83301063	     20.04359355	     -1.80519582	     -3.75939724	    -19.49831118	     18.95641579	     -2.08247872	      3.11168226	      3.41037687	      4.91183061
      0.29000000	    -11.85097443	      1.62865266	    -20.87068516	     -1.41937019	      0.97770452	     -0.43843377	     20.49892394	      4.13781425	     -3.37804989	    -18.78374942	     16.71158757	     -5.83024830	     20.04942053	     -1.80506522	     -3.76071807	    -19.49868066	     18.95562193	     -2.08285792	      3.11538805	      3.41038717	      4.88509782
